<?xml version="1.0" encoding="UTF-8" standalone="no"?>
<!-- Created with Inkscape (http://www.inkscape.org/) -->
<svg
   xmlns:dc="http://purl.org/dc/elements/1.1/"
   xmlns:cc="http://creativecommons.org/ns#"
   xmlns:rdf="http://www.w3.org/1999/02/22-rdf-syntax-ns#"
   xmlns:svg="http://www.w3.org/2000/svg"
   xmlns="http://www.w3.org/2000/svg"
   xmlns:sodipodi="http://sodipodi.sourceforge.net/DTD/sodipodi-0.dtd"
   xmlns:inkscape="http://www.inkscape.org/namespaces/inkscape"
   width="700"
   height="700"
   id="svg2"
   sodipodi:version="0.32"
   inkscape:version="0.46"
   sodipodi:docbase="C:\CARLOS"
   sodipodi:docname="MDanger.svg"
   version="1.0"
   inkscape:output_extension="org.inkscape.output.svg.inkscape">
  <defs
     id="defs4">
    <inkscape:perspective
       sodipodi:type="inkscape:persp3d"
       inkscape:vp_x="0 : 350 : 1"
       inkscape:vp_y="0 : 1000 : 0"
       inkscape:vp_z="700 : 350 : 1"
       inkscape:persp3d-origin="350 : 233.33333 : 1"
       id="perspective377" />
  </defs>
  <sodipodi:namedview
     id="base"
     pagecolor="#ffffff"
     bordercolor="#666666"
     borderopacity="1.0"
     inkscape:pageopacity="0.0"
     inkscape:pageshadow="2"
     inkscape:zoom="2.9666517"
     inkscape:cx="270.46525"
     inkscape:cy="347.86719"
     inkscape:document-units="px"
     inkscape:current-layer="layer1"
     inkscape:window-width="1272"
     inkscape:window-height="965"
     inkscape:window-x="65"
     inkscape:window-y="4"
     objecttolerance="50"
     inkscape:object-bbox="false"
     inkscape:object-points="false"
     inkscape:object-nodes="false"
     inkscape:object-paths="false"
     inkscape:grid-bbox="false"
     inkscape:guide-bbox="false"
     height="700px"
     width="700px"
     showgrid="false" />
  <metadata
     id="metadata7">
    <rdf:RDF>
      <cc:Work
         rdf:about="">
        <dc:format>image/svg+xml</dc:format>
        <dc:type
           rdf:resource="http://purl.org/dc/dcmitype/StillImage" />
        <dc:title>Sign Hazard Warning</dc:title>
        <dc:date>11/09/2006</dc:date>
        <dc:creator>
          <cc:Agent>
            <dc:title>h0us3s</dc:title>
          </cc:Agent>
        </dc:creator>
        <dc:language>es</dc:language>
        <dc:subject>
          <rdf:Bag>
            <rdf:li>Inkscape</rdf:li>
            <rdf:li>Sign Hazard</rdf:li>
            <rdf:li>Warning</rdf:li>
          </rdf:Bag>
        </dc:subject>
        <cc:license
           rdf:resource="http://web.resource.org/cc/PublicDomain" />
      </cc:Work>
      <cc:License
         rdf:about="http://web.resource.org/cc/PublicDomain">
        <cc:permits
           rdf:resource="http://web.resource.org/cc/Reproduction" />
        <cc:permits
           rdf:resource="http://web.resource.org/cc/Distribution" />
        <cc:permits
           rdf:resource="http://web.resource.org/cc/DerivativeWorks" />
      </cc:License>
    </rdf:RDF>
  </metadata>
  <g
     inkscape:groupmode="layer"
     id="layer2"
     inkscape:label="1"
     style="display:inline" />
  <g
     inkscape:label="Capa 1"
     inkscape:groupmode="layer"
     id="layer1"
     style="display:inline">
    <g
       id="g3141"
       transform="translate(80.72047,0)" />
    <path
       style="fill:#000000;fill-opacity:1;fill-rule:nonzero;stroke:none;stroke-width:9.14700031;stroke-linecap:round;stroke-linejoin:round;marker:none;marker-start:none;marker-mid:none;marker-end:none;stroke-miterlimit:4;stroke-dasharray:none;stroke-dashoffset:43.68000031;stroke-opacity:1;visibility:visible;display:inline;overflow:visible"
       d="M 254.25017,331.96518 C 253.7413,332.04399 253.30801,332.35074 253.06267,332.77768 L 226.56267,378.68393 C 226.27245,379.1894 226.27157,379.83781 226.56267,380.34018 C 226.85858,380.85086 227.40494,381.18438 228.00017,381.18393 L 281.00017,381.18393 C 281.59538,381.18438 282.14175,380.85087 282.43767,380.34018 C 282.72875,379.83782 282.7279,379.1894 282.43767,378.68393 L 255.93767,332.77768 C 255.59747,332.18524 254.93955,331.85718 254.25017,331.96518 z M 254.50017,337.24643 L 277.00017,376.87143 L 231.96892,376.87143 L 254.50017,337.24643 z"
       id="path2828" />
    <g
       id="g5806"
       transform="matrix(0.442824,0,0,0.442824,640.81817,386.60013)">
      <path
         sodipodi:nodetypes="cccccccccccccccccccccccccccccccccccccccccccccccc"
         id="path5700"
         d="M -865.7914,-104.21454 L -889.7914,-45.507857 L -861.7289,-96.594214 L -865.7914,-104.21454 z M -885.5414,-93.070357 L -892.13515,-80.476607 L -893.88515,-48.820357 L -885.5414,-93.070357 z M -856.6664,-85.539107 L -878.3539,-56.789107 L -854.6039,-82.007857 L -856.6664,-85.539107 z M -851.1664,-76.226607 L -886.69765,-41.257857 L -847.69765,-70.382857 L -851.1664,-76.226607 z M -901.44765,-64.539107 L -903.9789,-60.851607 L -897.94765,-50.164107 C -897.94764,-50.940679 -901.44765,-64.539107 -901.44765,-64.539107 z M -843.8539,-63.914107 L -875.82265,-45.132857 L -841.6039,-60.070357 L -843.8539,-63.914107 z M -905.5414,-58.726607 L -908.26015,-53.664107 L -902.0414,-47.664107 L -905.5414,-58.726607 z M -835.8539,-50.382857 L -880.88515,-39.882857 L -833.26015,-46.007857 L -835.8539,-50.382857 z M -829.63515,-39.289107 L -867.4789,-37.757857 L -827.4789,-36.195357 L -829.63515,-39.289107 z M -882.2289,-35.414107 L -822.51015,-27.851607 L -825.19765,-32.382857 L -882.2289,-35.414107 z M -883.9789,-28.445357 L -850.1039,-19.882857 L -839.51015,-19.882857 L -883.9789,-28.445357 z M -889.6039,-27.664107 C -888.00222,-27.130214 -880.99951,-22.973563 -875.8539,-19.882857 L -866.7914,-19.882857 L -889.6039,-27.664107 z"
         style="fill:#000000;fill-opacity:1;fill-rule:evenodd;stroke:none;stroke-width:1px;stroke-linecap:butt;stroke-linejoin:miter;stroke-opacity:1" />
      <path
         id="path5756"
         d="M -881.6042,-83.117313 C -881.6042,-83.163073 -881.6042,-83.208833 -881.6042,-83.254592 C -881.6042,-83.749561 -881.05508,-84.078271 -880.78052,-84.49011 C -880.3314,-85.163793 -880.12188,-85.972429 -879.545,-86.549305 C -878.78257,-87.311732 -878.00645,-87.297225 -877.21125,-87.098424 C -876.58756,-86.942503 -876.66213,-85.75526 -876.66213,-85.176508 C -876.66213,-83.966905 -878.05867,-83.477024 -878.72132,-82.980033 C -879.51474,-82.384973 -879.44793,-79.928003 -879.81956,-78.998921 C -880.20195,-78.042943 -881.11367,-77.750013 -881.74148,-78.587082 C -882.46099,-79.546439 -882.78888,-80.53274 -883.38883,-81.332676 C -884.15916,-82.359778 -882.85977,-82.558167 -882.2906,-82.842753 C -882.07019,-82.952958 -881.833,-83.025793 -881.6042,-83.117313 z"
         style="fill:#000000;fill-opacity:1;fill-rule:evenodd;stroke:#000000;stroke-width:1px;stroke-linecap:butt;stroke-linejoin:miter;stroke-opacity:1" />
      <path
         id="path5758"
         d="M -865.13063,-82.019075 C -864.26724,-82.450773 -867.0482,-81.744516 -868.01351,-81.744516 C -869.09016,-81.744516 -868.18321,-79.612881 -868.01351,-79.273481 C -867.25818,-77.762836 -866.13848,-79.461055 -865.67975,-77.626124 C -865.30951,-76.145168 -865.45461,-76.147622 -864.03239,-77.214285 C -863.52713,-77.593236 -863.31611,-79.070592 -862.93416,-79.54804 C -862.15722,-80.519208 -862.02504,-80.997147 -861.56136,-82.156355 C -861.17496,-83.122351 -861.25859,-83.363658 -861.83592,-83.940991 C -862.55719,-84.662264 -863.83497,-83.289024 -864.16967,-82.842753 C -864.53359,-82.357536 -864.46568,-82.418048 -865.13063,-82.019075 z"
         style="fill:#000000;fill-opacity:1;fill-rule:evenodd;stroke:#000000;stroke-width:1px;stroke-linecap:butt;stroke-linejoin:miter;stroke-opacity:1" />
      <path
         id="path5760"
         d="M -859.63944,-50.856581 C -859.73184,-50.733384 -858.22549,-51.724868 -857.30569,-51.954819 C -856.27248,-52.213122 -855.54529,-51.836932 -854.83465,-51.26842 C -854.03836,-50.631388 -854.32984,-49.173642 -854.42281,-48.522826 C -854.52888,-47.780345 -856.74903,-48.109102 -857.30569,-48.248267 C -857.48873,-48.294027 -857.67177,-48.339787 -857.85481,-48.385546 C -858.96664,-48.663505 -860.25698,-48.213836 -861.14952,-48.660106 C -862.10926,-49.139977 -860.98938,-50.330327 -860.73768,-50.582022 C -860.56087,-50.758829 -859.73425,-50.83762 -859.63944,-50.856581 z"
         style="fill:#000000;fill-opacity:1;fill-rule:evenodd;stroke:#000000;stroke-width:1px;stroke-linecap:butt;stroke-linejoin:miter;stroke-opacity:1" />
      <path
         id="path5762"
         d="M -892.31201,-65.820069 C -892.29059,-65.841496 -894.32473,-66.529708 -896.29313,-65.54551 C -897.36737,-65.008389 -898.00878,-64.034751 -897.39136,-62.799916 C -896.6858,-61.388782 -897.3225,-61.084292 -897.94048,-60.054322 C -898.47283,-59.167077 -896.84549,-58.269685 -896.15585,-58.269685 C -895.36798,-58.269685 -894.44847,-57.621918 -893.82209,-57.308727 C -892.57172,-56.683543 -892.86113,-59.078797 -892.86113,-59.642483 C -892.86113,-60.555577 -892.93068,-61.560783 -892.72385,-62.388077 C -892.57335,-62.990079 -892.69902,-63.860206 -892.58657,-64.309993 C -892.42085,-64.972877 -892.31201,-65.009406 -892.31201,-65.820069 z"
         style="fill:#000000;fill-opacity:1;fill-rule:evenodd;stroke:#000000;stroke-width:1px;stroke-linecap:butt;stroke-linejoin:miter;stroke-opacity:1" />
      <path
         id="path5764"
         d="M -889.0173,-36.854051 C -889.01318,-36.870525 -891.01309,-37.12861 -891.62562,-37.12861 C -892.34803,-37.12861 -892.31201,-35.293604 -892.31201,-34.794855 C -892.31201,-34.195209 -893.30908,-34.099431 -893.82209,-33.971177 C -894.61267,-33.773532 -892.20395,-33.010219 -891.90017,-33.010219 C -890.41097,-33.010219 -889.51587,-33.060773 -888.60546,-33.971177 C -887.99462,-34.582018 -888.05634,-35.114251 -888.05634,-36.030373 C -888.05634,-36.856663 -888.13863,-36.854051 -889.0173,-36.854051 z"
         style="fill:#000000;fill-opacity:1;fill-rule:evenodd;stroke:#000000;stroke-width:1px;stroke-linecap:butt;stroke-linejoin:miter;stroke-opacity:1" />
      <path
         id="path5766"
         d="M -858.12937,-29.440947 C -858.12937,-30.95178 -863.36439,-30.539184 -864.44423,-30.539184 C -866.13295,-30.539184 -865.70664,-29.484537 -864.71879,-28.891828 C -863.91179,-28.407628 -861.90585,-28.768534 -861.14952,-28.617268 C -859.94028,-28.37542 -858.94066,-27.789461 -857.71753,-27.381751 C -856.72478,-27.050837 -855.85575,-27.553051 -855.65833,-28.342709 C -855.56917,-28.699341 -856.62329,-29.582231 -856.89385,-29.852786 C -857.70571,-30.664648 -857.91137,-30.208065 -858.12937,-29.990065"
         style="fill:#000000;fill-opacity:1;fill-rule:evenodd;stroke:#000000;stroke-width:1px;stroke-linecap:butt;stroke-linejoin:miter;stroke-opacity:1" />
      <path
         id="path5768"
         d="M -875.97573,-63.898153 C -877.04405,-64.966473 -878.14553,-62.972758 -878.58404,-62.388077 C -879.24675,-61.504469 -876.74479,-61.523067 -876.38757,-61.701678 C -875.47496,-62.157983 -875.67239,-63.139799 -875.97573,-63.898153 z"
         style="fill:#000000;fill-opacity:1;fill-rule:evenodd;stroke:#000000;stroke-width:1px;stroke-linecap:butt;stroke-linejoin:miter;stroke-opacity:1" />
      <path
         sodipodi:nodetypes="csssssssssssc"
         id="path5770"
         d="M -902.88255,-42.07068 C -915.3255,-32.832462 -904.09764,-19.629785 -891.90017,-27.107192 C -891.07155,-27.615159 -892.32895,-28.822893 -892.58657,-29.166387 C -893.16026,-29.931305 -893.50069,-30.184275 -894.37121,-30.401905 C -895.61945,-30.713964 -896.00059,-30.879134 -896.29313,-32.049261 C -896.52271,-32.967613 -896.14229,-33.586455 -895.88129,-34.108457 C -895.41653,-35.037963 -896.15822,-34.898408 -896.84224,-35.069415 C -897.67943,-35.278712 -898.33997,-34.832263 -899.03872,-34.657576 C -900.34635,-34.330667 -900.16984,-35.552778 -899.99968,-35.893093 C -899.52789,-36.836677 -898.93033,-36.586656 -899.176,-37.815009 C -899.27652,-38.317624 -900.96164,-38.26142 -901.37247,-38.364128 C -902.20117,-38.571302 -902.32476,-40.11409 -902.47071,-40.697883 C -902.65799,-41.447004 -902.33089,-41.151237 -902.88255,-42.07068 z"
         style="fill:#000000;fill-opacity:1;fill-rule:evenodd;stroke:#000000;stroke-width:1px;stroke-linecap:butt;stroke-linejoin:miter;stroke-opacity:1" />
    </g>
  </g>
</svg>
